{
  "asset": {
    "version": "2.0",
    "generator": "THREE.GLTFExporter"
  },
  "scenes": [
    {
      "name": "Scene",
      "nodes": [
        1
      ]
    }
  ],
  "scene": 0,
  "nodes": [
    {
      "name": "node-0",
      "extras": {
        "name": "node-0"
      },
      "mesh": 0
    },
    {
      "name": "Diner.gltf",
      "children": [
        0
      ]
    }
  ],
  "bufferViews": [
    {
      "buffer": 0,
      "byteOffset": 0,
      "byteLength": 52560,
      "target": 34962,
      "byteStride": 12
    },
    {
      "buffer": 0,
      "byteOffset": 52560,
      "byteLength": 52560,
      "target": 34962,
      "byteStride": 12
    },
    {
      "buffer": 0,
      "byteOffset": 105120,
      "byteLength": 35040,
      "target": 34962,
      "byteStride": 8
    },
    {
      "buffer": 0,
      "byteOffset": 140160,
      "byteLength": 8760,
      "target": 34963
    }
  ],
  "buffers": [
    {
      "byteLength": 148920,
      "uri": "data:application/octet-stream;base64,"
    }
  ],
  "accessors": [
    {
      "bufferView": 0,
      "componentType": 5126,
      "count": 4380,
      "max": [
        1,
        1,
        1
      ],
      "min": [
        -1,
        -1,
        -1
      ],
      "type": "VEC3"
    },
    {
      "bufferView": 1,
      "componentType": 5126,
      "count": 4380,
      "max": [
        9.988560676574707,
        6.306050777435303,
        7.155537128448486
      ],
      "min": [
        -9.988560676574707,
        0.0010860000038519502,
        -2.4716410636901855
      ],
      "type": "VEC3"
    },
    {
      "bufferView": 2,
      "componentType": 5126,
      "count": 4380,
      "max": [
        0.9951440095901489,
        -0.0026140001136809587
      ],
      "min": [
        0.009902999736368656,
        -0.995602011680603
      ],
      "type": "VEC2"
    },
    {
      "bufferView": 3,
      "componentType": 5123,
      "count": 4380,
      "max": [
        4379
      ],
      "min": [
        0
      ],
      "type": "SCALAR"
    }
  ],
  "materials": [
    {
      "pbrMetallicRoughness": {
        "metallicFactor": 0,
        "roughnessFactor": 0.9699476628648295,
        "baseColorTexture": {
          "index": 0
        }
      },
      "doubleSided": true,
      "name": "Diner:blinn1SG"
    }
  ],
  "textures": [
    {
      "sampler": 0,
      "source": 0,
      "name": "Diner:blinn1SG-texture"
    }
  ],
  "samplers": [
    {
      "magFilter": 9729,
      "minFilter": 9987,
      "wrapS": 10497,
      "wrapT": 10497
    }
  ],
  "images": [
    {
      "mimeType": "image/png",
      "uri": "data:image/png;base64,"
    }
  ],
  "meshes": [
    {
      "primitives": [
        {
          "mode": 4,
          "attributes": {
            "NORMAL": 0,
            "POSITION": 1,
            "TEXCOORD_0": 2
          },
          "indices": 3,
          "material": 0
        }
      ]
    }
  ]
}